<?xml version="1.0" encoding="UTF-8" standalone="no"?>
<!DOCTYPE svg PUBLIC "-//W3C//DTD SVG 1.1//EN"
 "http://www.w3.org/Graphics/SVG/1.1/DTD/svg11.dtd">
<!-- Generated by graphviz version 2.42.4 (0)
 -->
<!-- Title: flujo_principal Pages: 1 -->
<svg width="419pt" height="697pt"
 viewBox="0.00 0.00 418.66 697.00" xmlns="http://www.w3.org/2000/svg" xmlns:xlink="http://www.w3.org/1999/xlink">
<g id="graph0" class="graph" transform="scale(1 1) rotate(0) translate(4 693)">
<title>flujo_principal</title>
<polygon fill="white" stroke="transparent" points="-4,4 -4,-693 414.66,-693 414.66,4 -4,4"/>
<!-- inicio -->
<g id="node1" class="node">
<title>inicio</title>
<ellipse fill="none" stroke="black" cx="251" cy="-671" rx="27.82" ry="18"/>
<text text-anchor="middle" x="251" y="-668.2" font-family="Arial" font-size="11.00">INICIO</text>
</g>
<!-- reglas -->
<g id="node2" class="node">
<title>reglas</title>
<polygon fill="none" stroke="black" points="309,-626 193,-626 193,-590 309,-590 309,-626"/>
<text text-anchor="middle" x="251" y="-611.2" font-family="Arial" font-size="11.00">Mostrar título y reglas</text>
<text text-anchor="middle" x="251" y="-599.2" font-family="Arial" font-size="11.00">del juego</text>
</g>
<!-- inicio&#45;&gt;reglas -->
<g id="edge1" class="edge">
<title>inicio&#45;&gt;reglas</title>
<path fill="none" stroke="black" d="M251,-652.68C251,-647.62 251,-641.95 251,-636.42"/>
<polygon fill="black" stroke="black" points="254.5,-636.15 251,-626.15 247.5,-636.15 254.5,-636.15"/>
</g>
<!-- opcion -->
<g id="node3" class="node">
<title>opcion</title>
<polygon fill="none" stroke="black" points="410.82,-563 156.58,-563 91.18,-499 345.42,-499 410.82,-563"/>
<text text-anchor="middle" x="251" y="-534.2" font-family="Arial" font-size="11.00">Solicitar jugada</text>
<text text-anchor="middle" x="251" y="-522.2" font-family="Arial" font-size="11.00">(1: Piedra, 2: Papel, 3: Tijera)</text>
</g>
<!-- reglas&#45;&gt;opcion -->
<g id="edge2" class="edge">
<title>reglas&#45;&gt;opcion</title>
<path fill="none" stroke="black" d="M251,-589.98C251,-584.89 251,-579.06 251,-573.12"/>
<polygon fill="black" stroke="black" points="254.5,-573.11 251,-563.11 247.5,-573.11 254.5,-573.11"/>
</g>
<!-- valida -->
<g id="node4" class="node">
<title>valida</title>
<polygon fill="none" stroke="black" points="147,-472 81,-440 147,-408 213,-440 147,-472"/>
<text text-anchor="middle" x="147" y="-443.2" font-family="Arial" font-size="11.00">¿La opción</text>
<text text-anchor="middle" x="147" y="-431.2" font-family="Arial" font-size="11.00">es válida?</text>
</g>
<!-- opcion&#45;&gt;valida -->
<g id="edge3" class="edge">
<title>opcion&#45;&gt;valida</title>
<path fill="none" stroke="black" d="M214.63,-498.87C202.63,-488.61 189.42,-477.3 177.87,-467.42"/>
<polygon fill="black" stroke="black" points="180.06,-464.68 170.19,-460.84 175.51,-470 180.06,-464.68"/>
</g>
<!-- error -->
<g id="node5" class="node">
<title>error</title>
<polygon fill="none" stroke="black" points="291,-371 157,-371 157,-335 291,-335 291,-371"/>
<text text-anchor="middle" x="224" y="-350.2" font-family="Arial" font-size="11.00">Mostrar mensaje de error</text>
</g>
<!-- valida&#45;&gt;error -->
<g id="edge5" class="edge">
<title>valida&#45;&gt;error</title>
<path fill="none" stroke="black" d="M166.83,-417.11C177.43,-405.41 190.52,-390.96 201.5,-378.84"/>
<polygon fill="black" stroke="black" points="204.24,-381.02 208.36,-371.26 199.06,-376.32 204.24,-381.02"/>
<text text-anchor="middle" x="201.5" y="-387" font-family="Arial" font-size="10.00">No</text>
</g>
<!-- pc -->
<g id="node6" class="node">
<title>pc</title>
<polygon fill="none" stroke="black" points="132,-371 0,-371 0,-335 132,-335 132,-371"/>
<text text-anchor="middle" x="66" y="-356.2" font-family="Arial" font-size="11.00">Generar jugada aleatoria</text>
<text text-anchor="middle" x="66" y="-344.2" font-family="Arial" font-size="11.00">de la computadora</text>
</g>
<!-- valida&#45;&gt;pc -->
<g id="edge4" class="edge">
<title>valida&#45;&gt;pc</title>
<path fill="none" stroke="black" d="M126.56,-417.55C115.23,-405.66 101.09,-390.82 89.33,-378.48"/>
<polygon fill="black" stroke="black" points="91.79,-375.99 82.35,-371.16 86.72,-380.82 91.79,-375.99"/>
<text text-anchor="middle" x="110" y="-387" font-family="Arial" font-size="10.00">Sí</text>
</g>
<!-- error&#45;&gt;opcion -->
<g id="edge6" class="edge">
<title>error&#45;&gt;opcion</title>
<path fill="none" stroke="black" d="M226.67,-371.39C230.83,-398.51 238.98,-451.62 244.69,-488.88"/>
<polygon fill="black" stroke="black" points="241.26,-489.59 246.24,-498.94 248.18,-488.52 241.26,-489.59"/>
</g>
<!-- comparar -->
<g id="node7" class="node">
<title>comparar</title>
<polygon fill="none" stroke="black" points="183.5,-298 74.5,-298 74.5,-262 183.5,-262 183.5,-298"/>
<text text-anchor="middle" x="129" y="-283.2" font-family="Arial" font-size="11.00">Determinar ganador</text>
<text text-anchor="middle" x="129" y="-271.2" font-family="Arial" font-size="11.00">de la ronda</text>
</g>
<!-- pc&#45;&gt;comparar -->
<g id="edge7" class="edge">
<title>pc&#45;&gt;comparar</title>
<path fill="none" stroke="black" d="M81.25,-334.81C88.99,-326.09 98.53,-315.34 107.04,-305.75"/>
<polygon fill="black" stroke="black" points="109.87,-307.83 113.89,-298.03 104.63,-303.19 109.87,-307.83"/>
</g>
<!-- mostrar -->
<g id="node8" class="node">
<title>mostrar</title>
<polygon fill="none" stroke="black" points="280.5,-235 165.5,-235 165.5,-199 280.5,-199 280.5,-235"/>
<text text-anchor="middle" x="223" y="-220.2" font-family="Arial" font-size="11.00">Mostrar resultado</text>
<text text-anchor="middle" x="223" y="-208.2" font-family="Arial" font-size="11.00">y actualizar marcador</text>
</g>
<!-- comparar&#45;&gt;mostrar -->
<g id="edge8" class="edge">
<title>comparar&#45;&gt;mostrar</title>
<path fill="none" stroke="black" d="M155.43,-261.85C165.63,-255.23 177.44,-247.57 188.3,-240.52"/>
<polygon fill="black" stroke="black" points="190.28,-243.41 196.76,-235.03 186.47,-237.53 190.28,-243.41"/>
</g>
<!-- continuar -->
<g id="node9" class="node">
<title>continuar</title>
<polygon fill="none" stroke="black" points="276,-172 186.91,-154 276,-136 365.09,-154 276,-172"/>
<text text-anchor="middle" x="276" y="-151.2" font-family="Arial" font-size="11.00">¿Jugar otra ronda?</text>
</g>
<!-- mostrar&#45;&gt;continuar -->
<g id="edge9" class="edge">
<title>mostrar&#45;&gt;continuar</title>
<path fill="none" stroke="black" d="M238.05,-198.68C243.76,-192.1 250.37,-184.5 256.44,-177.51"/>
<polygon fill="black" stroke="black" points="259.33,-179.52 263.25,-169.67 254.05,-174.93 259.33,-179.52"/>
</g>
<!-- continuar&#45;&gt;opcion -->
<g id="edge10" class="edge">
<title>continuar&#45;&gt;opcion</title>
<path fill="none" stroke="black" d="M297.25,-167.99C312,-178.79 329,-195.66 329,-216 329,-441 329,-441 329,-441 329,-460.42 318.37,-477.63 304.95,-491.62"/>
<polygon fill="black" stroke="black" points="302.46,-489.16 297.72,-498.64 307.34,-494.18 302.46,-489.16"/>
<text text-anchor="middle" x="334" y="-314" font-family="Arial" font-size="10.00">Sí</text>
</g>
<!-- final -->
<g id="node10" class="node">
<title>final</title>
<polygon fill="none" stroke="black" points="336.5,-99 215.5,-99 215.5,-63 336.5,-63 336.5,-99"/>
<text text-anchor="middle" x="276" y="-84.2" font-family="Arial" font-size="11.00">Mostrar marcador final</text>
<text text-anchor="middle" x="276" y="-72.2" font-family="Arial" font-size="11.00">y despedida</text>
</g>
<!-- continuar&#45;&gt;final -->
<g id="edge11" class="edge">
<title>continuar&#45;&gt;final</title>
<path fill="none" stroke="black" d="M276,-135.81C276,-127.79 276,-118.05 276,-109.07"/>
<polygon fill="black" stroke="black" points="279.5,-109.03 276,-99.03 272.5,-109.03 279.5,-109.03"/>
<text text-anchor="middle" x="282.5" y="-115" font-family="Arial" font-size="10.00">No</text>
</g>
<!-- fin -->
<g id="node11" class="node">
<title>fin</title>
<ellipse fill="none" stroke="black" cx="276" cy="-18" rx="27" ry="18"/>
<text text-anchor="middle" x="276" y="-15.2" font-family="Arial" font-size="11.00">FIN</text>
</g>
<!-- final&#45;&gt;fin -->
<g id="edge12" class="edge">
<title>final&#45;&gt;fin</title>
<path fill="none" stroke="black" d="M276,-62.68C276,-57.62 276,-51.95 276,-46.42"/>
<polygon fill="black" stroke="black" points="279.5,-46.15 276,-36.15 272.5,-46.15 279.5,-46.15"/>
</g>
</g>
</svg>
