<?xml version="1.0" encoding="UTF-8" standalone="no"?>
<!DOCTYPE svg PUBLIC "-//W3C//DTD SVG 1.1//EN"
 "http://www.w3.org/Graphics/SVG/1.1/DTD/svg11.dtd">
<!-- Generated by graphviz version 2.42.4 (0)
 -->
<!-- Title: flujo_resultado Pages: 1 -->
<svg width="508pt" height="413pt"
 viewBox="0.00 0.00 507.50 413.00" xmlns="http://www.w3.org/2000/svg" xmlns:xlink="http://www.w3.org/1999/xlink">
<g id="graph0" class="graph" transform="scale(1 1) rotate(0) translate(4 409)">
<title>flujo_resultado</title>
<polygon fill="white" stroke="transparent" points="-4,4 -4,-409 503.5,-409 503.5,4 -4,4"/>
<!-- inicio -->
<g id="node1" class="node">
<title>inicio</title>
<ellipse fill="none" stroke="black" cx="133" cy="-387" rx="27.82" ry="18"/>
<text text-anchor="middle" x="133" y="-384.2" font-family="Arial" font-size="11.00">INICIO</text>
</g>
<!-- igualdad -->
<g id="node2" class="node">
<title>igualdad</title>
<polygon fill="none" stroke="black" points="133,-338 0,-306 133,-274 266,-306 133,-338"/>
<text text-anchor="middle" x="133" y="-309.2" font-family="Arial" font-size="11.00">¿Jugador y computadora</text>
<text text-anchor="middle" x="133" y="-297.2" font-family="Arial" font-size="11.00">eligieron lo mismo?</text>
</g>
<!-- inicio&#45;&gt;igualdad -->
<g id="edge1" class="edge">
<title>inicio&#45;&gt;igualdad</title>
<path fill="none" stroke="black" d="M133,-368.86C133,-362.82 133,-355.75 133,-348.58"/>
<polygon fill="black" stroke="black" points="136.5,-348.12 133,-338.12 129.5,-348.12 136.5,-348.12"/>
</g>
<!-- empate -->
<g id="node3" class="node">
<title>empate</title>
<polygon fill="none" stroke="black" points="163.5,-154 58.5,-154 58.5,-118 163.5,-118 163.5,-154"/>
<text text-anchor="middle" x="111" y="-133.2" font-family="Arial" font-size="11.00">Resultado: Empate</text>
</g>
<!-- igualdad&#45;&gt;empate -->
<g id="edge2" class="edge">
<title>igualdad&#45;&gt;empate</title>
<path fill="none" stroke="black" d="M129.02,-274.58C124.91,-243.25 118.58,-194.86 114.61,-164.6"/>
<polygon fill="black" stroke="black" points="118.04,-163.8 113.27,-154.34 111.1,-164.71 118.04,-163.8"/>
<text text-anchor="middle" x="132" y="-251" font-family="Arial" font-size="10.00">Sí</text>
</g>
<!-- gana -->
<g id="node4" class="node">
<title>gana</title>
<polygon fill="none" stroke="black" points="294,-233 155,-201 294,-169 433,-201 294,-233"/>
<text text-anchor="middle" x="294" y="-204.2" font-family="Arial" font-size="11.00">¿La combinación es</text>
<text text-anchor="middle" x="294" y="-192.2" font-family="Arial" font-size="11.00">ganadora para el jugador?</text>
</g>
<!-- igualdad&#45;&gt;gana -->
<g id="edge3" class="edge">
<title>igualdad&#45;&gt;gana</title>
<path fill="none" stroke="black" d="M168.33,-282.4C192.28,-267.07 224.12,-246.7 249.76,-230.3"/>
<polygon fill="black" stroke="black" points="251.66,-233.24 258.19,-224.91 247.88,-227.35 251.66,-233.24"/>
<text text-anchor="middle" x="224.5" y="-251" font-family="Arial" font-size="10.00">No</text>
</g>
<!-- fin -->
<g id="node7" class="node">
<title>fin</title>
<ellipse fill="none" stroke="black" cx="227" cy="-18" rx="87.39" ry="18"/>
<text text-anchor="middle" x="227" y="-15.2" font-family="Arial" font-size="11.00">RETORNAR RESULTADO</text>
</g>
<!-- empate&#45;&gt;fin -->
<g id="edge6" class="edge">
<title>empate&#45;&gt;fin</title>
<path fill="none" stroke="black" d="M114.91,-117.91C119.05,-103.01 126.83,-81.57 140,-67 150.53,-55.35 164.58,-45.91 178.31,-38.59"/>
<polygon fill="black" stroke="black" points="179.89,-41.71 187.24,-34.08 176.74,-35.46 179.89,-41.71"/>
</g>
<!-- jugador -->
<g id="node5" class="node">
<title>jugador</title>
<polygon fill="none" stroke="black" points="299,-103 155,-103 155,-67 299,-67 299,-103"/>
<text text-anchor="middle" x="227" y="-82.2" font-family="Arial" font-size="11.00">Resultado: Gana el jugador</text>
</g>
<!-- gana&#45;&gt;jugador -->
<g id="edge4" class="edge">
<title>gana&#45;&gt;jugador</title>
<path fill="none" stroke="black" d="M277.95,-172.69C267.14,-154.3 252.96,-130.17 242.31,-112.04"/>
<polygon fill="black" stroke="black" points="245.18,-110.02 237.09,-103.17 239.14,-113.57 245.18,-110.02"/>
<text text-anchor="middle" x="271" y="-133.5" font-family="Arial" font-size="10.00">Sí</text>
</g>
<!-- computadora -->
<g id="node6" class="node">
<title>computadora</title>
<polygon fill="none" stroke="black" points="499.5,-103 328.5,-103 328.5,-67 499.5,-67 499.5,-103"/>
<text text-anchor="middle" x="414" y="-82.2" font-family="Arial" font-size="11.00">Resultado: Gana la computadora</text>
</g>
<!-- gana&#45;&gt;computadora -->
<g id="edge5" class="edge">
<title>gana&#45;&gt;computadora</title>
<path fill="none" stroke="black" d="M320.33,-174.98C340.65,-155.69 368.57,-129.16 388.63,-110.1"/>
<polygon fill="black" stroke="black" points="391.06,-112.62 395.9,-103.19 386.24,-107.54 391.06,-112.62"/>
<text text-anchor="middle" x="384.5" y="-133.5" font-family="Arial" font-size="10.00">No</text>
</g>
<!-- jugador&#45;&gt;fin -->
<g id="edge7" class="edge">
<title>jugador&#45;&gt;fin</title>
<path fill="none" stroke="black" d="M227,-66.92C227,-60.7 227,-53.5 227,-46.6"/>
<polygon fill="black" stroke="black" points="230.5,-46.19 227,-36.19 223.5,-46.19 230.5,-46.19"/>
</g>
<!-- computadora&#45;&gt;fin -->
<g id="edge8" class="edge">
<title>computadora&#45;&gt;fin</title>
<path fill="none" stroke="black" d="M364.87,-66.92C338.46,-57.74 305.91,-46.43 279.06,-37.1"/>
<polygon fill="black" stroke="black" points="280.05,-33.73 269.46,-33.76 277.75,-40.35 280.05,-33.73"/>
</g>
</g>
</svg>
