<?xml version="1.0" encoding="UTF-8" standalone="no"?>
<!DOCTYPE svg PUBLIC "-//W3C//DTD SVG 1.1//EN"
 "http://www.w3.org/Graphics/SVG/1.1/DTD/svg11.dtd">
<!-- Generated by graphviz version 2.42.4 (0)
 -->
<!-- Title: flujo_validacion Pages: 1 -->
<svg width="305pt" height="378pt"
 viewBox="0.00 0.00 305.07 378.00" xmlns="http://www.w3.org/2000/svg" xmlns:xlink="http://www.w3.org/1999/xlink">
<g id="graph0" class="graph" transform="scale(1 1) rotate(0) translate(4 374)">
<title>flujo_validacion</title>
<polygon fill="white" stroke="transparent" points="-4,4 -4,-374 301.07,-374 301.07,4 -4,4"/>
<!-- inicio -->
<g id="node1" class="node">
<title>inicio</title>
<ellipse fill="none" stroke="black" cx="168.57" cy="-352" rx="27.82" ry="18"/>
<text text-anchor="middle" x="168.57" y="-349.2" font-family="Arial" font-size="11.00">INICIO</text>
</g>
<!-- pedir -->
<g id="node2" class="node">
<title>pedir</title>
<polygon fill="none" stroke="black" points="291.81,-303 95.75,-303 45.32,-239 241.38,-239 291.81,-303"/>
<text text-anchor="middle" x="168.57" y="-274.2" font-family="Arial" font-size="11.00">Leer opción ingresada</text>
<text text-anchor="middle" x="168.57" y="-262.2" font-family="Arial" font-size="11.00">por el usuario</text>
</g>
<!-- inicio&#45;&gt;pedir -->
<g id="edge1" class="edge">
<title>inicio&#45;&gt;pedir</title>
<path fill="none" stroke="black" d="M168.57,-333.86C168.57,-327.82 168.57,-320.75 168.57,-313.58"/>
<polygon fill="black" stroke="black" points="172.07,-313.12 168.57,-303.12 165.07,-313.12 172.07,-313.12"/>
</g>
<!-- revisar -->
<g id="node3" class="node">
<title>revisar</title>
<polygon fill="none" stroke="black" points="109.57,-208 29.57,-176 109.57,-144 189.57,-176 109.57,-208"/>
<text text-anchor="middle" x="109.57" y="-179.2" font-family="Arial" font-size="11.00">¿La opción es</text>
<text text-anchor="middle" x="109.57" y="-167.2" font-family="Arial" font-size="11.00">1, 2 o 3?</text>
</g>
<!-- pedir&#45;&gt;revisar -->
<g id="edge2" class="edge">
<title>pedir&#45;&gt;revisar</title>
<path fill="none" stroke="black" d="M148.76,-238.77C142.97,-229.66 136.63,-219.66 130.76,-210.41"/>
<polygon fill="black" stroke="black" points="133.63,-208.4 125.32,-201.83 127.72,-212.15 133.63,-208.4"/>
</g>
<!-- mensaje -->
<g id="node4" class="node">
<title>mensaje</title>
<polygon fill="none" stroke="black" points="297.07,-103 158.07,-103 158.07,-67 297.07,-67 297.07,-103"/>
<text text-anchor="middle" x="227.57" y="-82.2" font-family="Arial" font-size="11.00">Mostrar: Entrada no válida</text>
</g>
<!-- revisar&#45;&gt;mensaje -->
<g id="edge4" class="edge">
<title>revisar&#45;&gt;mensaje</title>
<path fill="none" stroke="black" d="M136.64,-154.58C154.58,-141.05 178.15,-123.27 196.8,-109.21"/>
<polygon fill="black" stroke="black" points="199.1,-111.85 204.98,-103.04 194.89,-106.26 199.1,-111.85"/>
<text text-anchor="middle" x="189.07" y="-121" font-family="Arial" font-size="10.00">No</text>
</g>
<!-- devolver -->
<g id="node5" class="node">
<title>devolver</title>
<polygon fill="none" stroke="black" points="132.57,-103 16.57,-103 16.57,-67 132.57,-67 132.57,-103"/>
<text text-anchor="middle" x="74.57" y="-88.2" font-family="Arial" font-size="11.00">Convertir opción a</text>
<text text-anchor="middle" x="74.57" y="-76.2" font-family="Arial" font-size="11.00">Piedra, Papel o Tijera</text>
</g>
<!-- revisar&#45;&gt;devolver -->
<g id="edge3" class="edge">
<title>revisar&#45;&gt;devolver</title>
<path fill="none" stroke="black" d="M98.87,-147.81C94.5,-136.7 89.46,-123.88 85.11,-112.8"/>
<polygon fill="black" stroke="black" points="88.25,-111.24 81.34,-103.22 81.74,-113.81 88.25,-111.24"/>
<text text-anchor="middle" x="96.57" y="-121" font-family="Arial" font-size="10.00">Sí</text>
</g>
<!-- mensaje&#45;&gt;pedir -->
<g id="edge5" class="edge">
<title>mensaje&#45;&gt;pedir</title>
<path fill="none" stroke="black" d="M225.71,-103.01C222.73,-127 215.83,-171.87 202.57,-208 199.95,-215.13 196.61,-222.44 193.05,-229.42"/>
<polygon fill="black" stroke="black" points="189.73,-228.21 188.11,-238.68 195.9,-231.51 189.73,-228.21"/>
</g>
<!-- fin -->
<g id="node6" class="node">
<title>fin</title>
<ellipse fill="none" stroke="black" cx="74.57" cy="-18" rx="74.63" ry="18"/>
<text text-anchor="middle" x="74.57" y="-15.2" font-family="Arial" font-size="11.00">RETORNAR JUGADA</text>
</g>
<!-- devolver&#45;&gt;fin -->
<g id="edge6" class="edge">
<title>devolver&#45;&gt;fin</title>
<path fill="none" stroke="black" d="M74.57,-66.92C74.57,-60.7 74.57,-53.5 74.57,-46.6"/>
<polygon fill="black" stroke="black" points="78.07,-46.19 74.57,-36.19 71.07,-46.19 78.07,-46.19"/>
</g>
</g>
</svg>
